<svg id="Layer_1" data-name="Layer 1" xmlns="http://www.w3.org/2000/svg" viewBox="0 0 497.9 498"><defs><title>xboxOne</title><path className="cls-1" d="M1075.35,71.6l-.2.2h0a248.88,248.88,0,0,0-23.2,328c.3.4.9.7,1.3.4a1.06,1.06,0,0,0,.3-1.3c-19-58.7,78-201,128.2-260.6a.85.85,0,0,0-.1-1.5c-84.4-83.9-106.9-64.7-106.6-65" transform="translate(-1001.05 0)"/><path className="cls-1" d="M1424.75,71.6l.2.2h0a249,249,0,0,1,23.1,328c-.3.4-.9.7-1.3.4a1.21,1.21,0,0,1-.3-1.3c19-58.7-78-201.1-128.1-260.7a1,1,0,0,1-.4-.7.89.89,0,0,1,.5-.8c84.4-83.9,106.8-64.6,106.5-64.9" transform="translate(-1001.05 0)"/><path className="cls-1" d="M1250.05,0c50.2,0,91.6,13.8,129.7,36.4a.87.87,0,0,1,.4,1.2,1,1,0,0,1-1.2.4c-48.2-10.4-121.5,31.2-128.4,35.4-.2.1-.3.2-.5.2a.76.76,0,0,1-.5-.2c-18.4-10.6-86.1-46.1-128.8-35.1a1,1,0,0,1-1.2-.4.93.93,0,0,1,.4-1.2c38.1-22.9,80-36.7,130.1-36.7" transform="translate(-1001.05 0)"/><path classNamename="cls-1" d="M1250.05,199.7a1.23,1.23,0,0,1,.8.4c74.5,56.7,202,196.7,163.1,236.3l.1-.1v.1h-.1a249,249,0,0,1-327.9,0l-.1-.1.1.1c-38.9-39.6,88.6-179.7,163.1-236.3a1.49,1.49,0,0,1,.9-.4" transform="translate(-1001.05 0)"/></svg>